<svg class = "contact-icon" viewBox="0 0 30 48" fill="none" xmlns="http://www.w3.org/2000/svg">
<path fill-rule="evenodd" clip-rule="evenodd" d="M3 11.9989C3.00022 9.68957 3.66677 7.42936 4.91968 5.48946C6.17259 3.54957 7.95864 2.0124 10.0635 1.06241C12.1684 0.112413 14.5027 -0.210055 16.7863 0.133698C19.0699 0.477451 21.2058 1.47282 22.9377 3.00038C24.6696 4.52793 25.924 6.52278 26.5503 8.74555C27.1766 10.9683 27.1482 13.3246 26.4685 15.5316C25.7889 17.7387 24.4869 19.7028 22.7187 21.1882C20.9505 22.6736 18.7912 23.6172 16.5 23.9059V40.4989C16.5 40.8967 16.342 41.2782 16.0607 41.5596C15.7794 41.8409 15.3978 41.9989 15 41.9989C14.6022 41.9989 14.2206 41.8409 13.9393 41.5596C13.658 41.2782 13.5 40.8967 13.5 40.4989V23.9089C10.5989 23.5434 7.93106 22.1312 5.99764 19.9376C4.06422 17.744 2.99827 14.9229 3 11.9989ZM10.479 37.7209C10.5441 38.1131 10.4507 38.5151 10.2195 38.8386C9.98833 39.162 9.63817 39.3805 9.246 39.4459C7.11 39.7999 5.406 40.3309 4.281 40.9249C3.86773 41.1236 3.49214 41.3926 3.171 41.7199C3.0984 41.799 3.04049 41.8904 3 41.9899V41.9989L3.006 42.0229C3.0178 42.0578 3.03393 42.091 3.054 42.1219C3.17241 42.2955 3.31951 42.4477 3.489 42.5719C3.984 42.9619 4.794 43.3819 5.928 43.7569C8.181 44.5069 11.388 44.9989 15 44.9989C18.612 44.9989 21.819 44.5099 24.072 43.7569C25.206 43.3789 26.016 42.9619 26.511 42.5719C26.6815 42.4478 26.8296 42.2957 26.949 42.1219C26.968 42.0909 26.9831 42.0576 26.994 42.0229L27 41.9989V41.9869C26.9595 41.8874 26.9016 41.796 26.829 41.7169C26.5077 41.3906 26.1321 41.1226 25.719 40.9249C24.591 40.3309 22.89 39.7999 20.754 39.4459C20.555 39.4189 20.3635 39.3523 20.1908 39.2499C20.018 39.1476 19.8676 39.0116 19.7484 38.85C19.6292 38.6885 19.5436 38.5046 19.4968 38.3093C19.45 38.1141 19.4428 37.9114 19.4757 37.7134C19.5087 37.5153 19.5811 37.3259 19.6886 37.1563C19.7961 36.9867 19.9366 36.8404 20.1016 36.7262C20.2667 36.6119 20.4531 36.5319 20.6497 36.491C20.8462 36.45 21.049 36.449 21.246 36.4879C23.556 36.8689 25.602 37.4719 27.117 38.2699C28.5 38.9989 30 40.1989 30 41.9989C30 43.2769 29.22 44.2549 28.368 44.9299C27.498 45.6139 26.328 46.1689 25.02 46.6039C22.386 47.4829 18.843 47.9989 15 47.9989C11.157 47.9989 7.614 47.4829 4.98 46.6039C3.672 46.1689 2.502 45.6139 1.632 44.9299C0.78 44.2549 0 43.2769 0 41.9989C0 40.2019 1.5 38.9989 2.883 38.2699C4.398 37.4719 6.444 36.8689 8.754 36.4879C9.14623 36.4228 9.54824 36.5162 9.8717 36.7474C10.1952 36.9786 10.4136 37.3287 10.479 37.7209Z" fill="#B88E2F"/>
</svg>
