<svg width="25" height="29" viewBox="0 0 25 29" fill="none" xmlns="http://www.w3.org/2000/svg">
<path fill-rule="evenodd" clip-rule="evenodd" d="M12.4996 0C8.66482 0 5.55607 3.10876 5.55607 6.94357C5.55607 10.7784 8.66482 13.8871 12.4996 13.8871C16.3345 13.8871 19.4431 10.7784 19.4431 6.94357C19.4431 5.10211 18.7118 3.33596 17.4096 2.03373C16.1074 0.731529 14.3412 0 12.4996 0Z" fill="white"/>
<path fill-rule="evenodd" clip-rule="evenodd" d="M7.9131 16.6646C7.89013 16.6646 7.86716 16.6651 7.84422 16.6663C4.63168 16.8258 1.78396 18.7809 0.47997 21.7189C-0.455342 23.5928 0.0674444 25.4475 1.26305 26.7246C2.42082 27.9612 4.21432 28.7001 6.0782 28.7001H18.921C20.7855 28.7001 22.5796 27.9614 23.7375 26.7246C24.9334 25.4472 25.4554 23.5923 24.5191 21.7186C23.2151 18.7807 20.3674 16.8258 17.1549 16.6663C17.132 16.6651 17.109 16.6646 17.086 16.6646H7.9131Z" fill="white"/>
</svg>
