<svg width="25" height="40" viewBox="0 0 25 40" fill="none" xmlns="http://www.w3.org/2000/svg">
<path fill-rule="evenodd" clip-rule="evenodd" d="M2.50006 9.9993C2.50024 8.07483 3.05571 6.19127 4.09983 4.57466C5.14395 2.95804 6.63235 1.67704 8.38645 0.88536C10.1406 0.0936793 12.0858 -0.17505 13.9889 0.111418C15.8919 0.397885 17.6719 1.22738 19.1152 2.50037C20.5585 3.77336 21.6038 5.43577 22.1257 7.28813C22.6477 9.14048 22.624 11.1041 22.0576 12.9433C21.4912 14.7826 20.4062 16.4193 18.9327 17.6572C17.4591 18.8951 15.6597 19.6815 13.7503 19.922V33.7499C13.7503 34.0814 13.6186 34.3993 13.3842 34.6338C13.1498 34.8682 12.8318 34.9999 12.5003 34.9999C12.1688 34.9999 11.8508 34.8682 11.6164 34.6338C11.382 34.3993 11.2503 34.0814 11.2503 33.7499V19.9245C8.83262 19.6199 6.60937 18.4431 4.99815 16.615C3.38693 14.787 2.49861 12.4361 2.50006 9.9993ZM8.7327 31.4348C8.78692 31.7617 8.70914 32.0967 8.51647 32.3662C8.3238 32.6358 8.03199 32.8178 7.70518 32.8723C5.92514 33.1673 4.5051 33.6099 3.56758 34.1049C3.22318 34.2704 2.91019 34.4946 2.64256 34.7674C2.58206 34.8333 2.5338 34.9095 2.50006 34.9924V34.9999L2.50506 35.0199C2.51489 35.0489 2.52833 35.0767 2.54506 35.1024C2.64373 35.2471 2.76632 35.3739 2.90757 35.4774C3.32008 35.8024 3.99509 36.1524 4.94011 36.4649C6.81766 37.0899 9.49022 37.4999 12.5003 37.4999C15.5104 37.4999 18.1829 37.0924 20.0605 36.4649C21.0055 36.1499 21.6805 35.8024 22.093 35.4774C22.2351 35.374 22.3585 35.2472 22.458 35.1024C22.4739 35.0765 22.4864 35.0488 22.4955 35.0199L22.5005 34.9999V34.9899C22.4668 34.907 22.4185 34.8308 22.358 34.7649C22.0902 34.493 21.7772 34.2696 21.433 34.1049C20.493 33.6099 19.0754 33.1673 17.2954 32.8723C17.1296 32.8499 16.97 32.7943 16.826 32.709C16.6821 32.6237 16.5567 32.5104 16.4574 32.3758C16.358 32.2411 16.2867 32.0879 16.2477 31.9252C16.2087 31.7625 16.2027 31.5936 16.2302 31.4285C16.2576 31.2635 16.3179 31.1056 16.4075 30.9643C16.4971 30.823 16.6142 30.7011 16.7518 30.6058C16.8893 30.5106 17.0446 30.4439 17.2084 30.4098C17.3723 30.3757 17.5413 30.3749 17.7054 30.4073C19.6305 30.7248 21.3355 31.2273 22.598 31.8923C23.7505 32.4998 25.0006 33.4998 25.0006 34.9999C25.0006 36.0649 24.3506 36.8799 23.6405 37.4424C22.9155 38.0125 21.9405 38.475 20.8505 38.8375C18.6554 39.57 15.7029 40 12.5003 40C9.29771 40 6.34515 39.57 4.1501 38.8375C3.06007 38.475 2.08505 38.0125 1.36003 37.4424C0.650015 36.8799 0 36.0649 0 34.9999C0 33.5023 1.25003 32.4998 2.40256 31.8923C3.66508 31.2273 5.37012 30.7248 7.29517 30.4073C7.62203 30.3531 7.95705 30.4308 8.22661 30.6235C8.49616 30.8162 8.67819 31.108 8.7327 31.4348Z" fill="#B88E2F"/>
</svg>
