<svg class = "adminuser-icon" viewBox="0 0 32 37" xmlns="http://www.w3.org/2000/svg">
<path fill-rule="evenodd" clip-rule="evenodd" d="M15.9994 0C11.091 0 7.11176 3.97921 7.11176 8.88777C7.11176 13.7963 11.091 17.7755 15.9994 17.7755C20.9081 17.7755 24.8872 13.7963 24.8872 8.88777C24.8872 6.53069 23.9511 4.27003 22.2842 2.60318C20.6175 0.936357 18.3567 0 15.9994 0Z"/>
<path fill-rule="evenodd" clip-rule="evenodd" d="M10.1288 21.3307C10.0994 21.3307 10.07 21.3314 10.0406 21.3328C5.92855 21.537 2.28347 24.0395 0.614362 27.8002C-0.582838 30.1988 0.0863289 32.5728 1.6167 34.2074C3.09865 35.7904 5.39433 36.7361 7.7801 36.7361H24.2188C26.6055 36.7361 28.9019 35.7906 30.384 34.2074C31.9147 32.5724 32.5829 30.1981 31.3844 27.7998C29.7153 24.0393 26.0703 21.537 21.9583 21.3328C21.9289 21.3314 21.8995 21.3307 21.8701 21.3307H10.1288Z"/>
</svg>
