<svg viewBox="0 0 26 23" fill="none" xmlns="http://www.w3.org/2000/svg">
<path d="M24.2358 16.1926H7.95267L8.77025 14.5273L22.3546 14.5027C22.8139 14.5027 23.2077 14.1746 23.2897 13.7207L25.171 3.19062C25.2202 2.91445 25.1463 2.63008 24.9659 2.41406C24.8767 2.30775 24.7654 2.22211 24.6398 2.16309C24.5142 2.10407 24.3773 2.07308 24.2385 2.07227L6.95737 2.01484L6.80971 1.32031C6.71674 0.877344 6.31752 0.554688 5.86362 0.554688H1.63903C1.38303 0.554688 1.13752 0.656381 0.956507 0.837398C0.775491 1.01841 0.673798 1.26393 0.673798 1.51992C0.673798 1.77592 0.775491 2.02143 0.956507 2.20245C1.13752 2.38346 1.38303 2.48516 1.63903 2.48516H5.08159L5.7269 5.55312L7.31557 13.2449L5.27026 16.5836C5.16405 16.727 5.10007 16.8972 5.08557 17.075C5.07108 17.2528 5.10664 17.4312 5.18823 17.5898C5.35229 17.9152 5.68315 18.1203 6.04956 18.1203H7.76674C7.40066 18.6065 7.20292 19.1988 7.20346 19.8074C7.20346 21.3551 8.46126 22.6129 10.0089 22.6129C11.5566 22.6129 12.8144 21.3551 12.8144 19.8074C12.8144 19.1977 12.612 18.6043 12.2511 18.1203H16.6562C16.2901 18.6065 16.0923 19.1988 16.0929 19.8074C16.0929 21.3551 17.3507 22.6129 18.8983 22.6129C20.446 22.6129 21.7038 21.3551 21.7038 19.8074C21.7038 19.1977 21.5014 18.6043 21.1405 18.1203H24.2385C24.769 18.1203 25.2038 17.6883 25.2038 17.1551C25.2022 16.8994 25.0995 16.6546 24.9182 16.4743C24.7368 16.294 24.4915 16.1927 24.2358 16.1926ZM7.35932 3.91797L23.1038 3.96992L21.5616 12.6051L9.19407 12.627L7.35932 3.91797ZM10.0089 20.6715C9.53314 20.6715 9.14486 20.2832 9.14486 19.8074C9.14486 19.3316 9.53314 18.9434 10.0089 18.9434C10.4847 18.9434 10.873 19.3316 10.873 19.8074C10.873 20.0366 10.7819 20.2564 10.6199 20.4184C10.4579 20.5805 10.2381 20.6715 10.0089 20.6715ZM18.8983 20.6715C18.4226 20.6715 18.0343 20.2832 18.0343 19.8074C18.0343 19.3316 18.4226 18.9434 18.8983 18.9434C19.3741 18.9434 19.7624 19.3316 19.7624 19.8074C19.7624 20.0366 19.6714 20.2564 19.5093 20.4184C19.3473 20.5805 19.1275 20.6715 18.8983 20.6715Z" fill="black"/>
</svg>
