<svg viewBox="0 0 24 24" xmlns="http://www.w3.org/2000/svg">
<path fill-rule="evenodd" clip-rule="evenodd" d="M5.62563 5.00001C5.92756 5.00001 6.08705 5.00097 6.20108 5.0114L6.20969 5.01222L6.21258 5.02038C6.25034 5.12846 6.28996 5.28297 6.36319 5.57588L6.54479 6.30226L6.56259 6.37362C6.64564 6.7069 6.71786 6.99671 6.83604 7.25364C6.90298 7.39916 6.98084 7.53784 7.06849 7.66881C6.47998 8.217 6.15984 9.04177 6.30471 9.911L6.73508 12.4932C6.78645 12.8014 6.88367 13.092 7.01907 13.3586C6.42383 13.6793 5.9428 14.1979 5.67292 14.8446C5.62997 14.9476 5.59312 15.0582 5.55076 15.1854L5.54176 15.2125L5.53131 15.2437C5.49658 15.3474 5.4554 15.4705 5.43147 15.5826C5.18467 16.7391 5.98972 17.856 7.16489 17.9876C7.27883 18.0003 7.40857 18.0002 7.51796 18L7.55091 18H18C18.5523 18 19 17.5523 19 17C19 16.4477 18.5523 16 18 16H7.55091C7.47418 16 7.42982 16 7.39736 15.9994L7.38854 15.9992L7.39115 15.9908C7.40087 15.9598 7.41486 15.9177 7.43912 15.8449C7.49556 15.6756 7.50791 15.6406 7.51865 15.6149C7.66379 15.2671 7.99215 15.0304 8.368 15.0027C8.39581 15.0007 8.43289 15 8.61137 15H9.69185L9.69426 15L14 15L15.7639 15C16.9003 15 17.939 14.358 18.4472 13.3416L19.2114 11.8133C18.8293 11.9346 18.4223 12 18 12C17.6372 12 17.2856 11.9517 16.9514 11.8612L16.6584 12.4472C16.489 12.786 16.1427 13 15.7639 13H14.0014L14 13L9.69426 13L9.69287 13C9.20463 12.9993 8.78816 12.6461 8.70787 12.1644L8.2775 9.58221C8.22671 9.27744 8.46173 9.00001 8.7707 9.00001H9.78521L9.92645 9.00004L10 9.00001H14.126C14.0438 8.68039 14 8.34531 14 8.00001C14 7.65471 14.0438 7.31963 14.126 7.00001H10C9.54118 7.00001 9.44581 6.99579 9.3765 6.98274C9.05808 6.92277 8.78845 6.71225 8.65305 6.41788C8.62358 6.35381 8.59635 6.26231 8.48507 5.81719L8.30348 5.09081L8.29521 5.05772C8.23363 4.81124 8.17231 4.56579 8.10065 4.3607C8.02003 4.12995 7.9014 3.87208 7.68402 3.63825C7.53943 3.48273 7.371 3.35122 7.18506 3.24867C6.90548 3.09449 6.62654 3.04195 6.38313 3.0197C6.16679 2.99992 5.91379 2.99996 5.65973 3L5.62563 3.00001H4C3.44772 3.00001 3 3.44772 3 4.00001C3 4.55229 3.44772 5.00001 4 5.00001H5.62563ZM18 20C18 20.5523 17.5523 21 17 21C16.4477 21 16 20.5523 16 20C16 19.4477 16.4477 19 17 19C17.5523 19 18 19.4477 18 20ZM9 21C9.55228 21 10 20.5523 10 20C10 19.4477 9.55228 19 9 19C8.44772 19 8 19.4477 8 20C8 20.5523 8.44772 21 9 21ZM18 11C19.6569 11 21 9.65686 21 8.00001C21 6.34315 19.6569 5.00001 18 5.00001C16.3431 5.00001 15 6.34315 15 8.00001C15 9.65686 16.3431 11 18 11ZM17.5 9.33334C17.5 9.60948 17.7239 9.83334 18 9.83334C18.2761 9.83334 18.5 9.60948 18.5 9.33334V8.50001H19.3333C19.6095 8.50001 19.8333 8.27615 19.8333 8.00001C19.8333 7.72386 19.6095 7.50001 19.3333 7.50001H18.5V6.66667C18.5 6.39053 18.2761 6.16667 18 6.16667C17.7239 6.16667 17.5 6.39053 17.5 6.66667V7.50001H16.6667C16.3905 7.50001 16.1667 7.72386 16.1667 8.00001C16.1667 8.27615 16.3905 8.50001 16.6667 8.50001H17.5V9.33334Z" />
</svg>
