<svg xmlns="http://www.w3.org/2000/svg" viewBox="0 0 26 23">
<g>
<path fill-rule="evenodd" clip-rule="evenodd" d="M15.7774 2.04415L6.9574 2.01484L6.80974 1.32031C6.71677 0.877344 6.31755 0.554688 5.86365 0.554688H1.63906C1.38306 0.554688 1.13755 0.656381 0.956537 0.837398C0.775521 1.01841 0.673828 1.26393 0.673828 1.51992C0.673828 1.77592 0.775521 2.02143 0.956537 2.20245C1.13755 2.38346 1.38306 2.48516 1.63906 2.48516H5.08162L5.72693 5.55312L7.3156 13.2449L5.27029 16.5836C5.16408 16.727 5.1001 16.8972 5.0856 17.075C5.07111 17.2528 5.10667 17.4312 5.18826 17.5898C5.35232 17.9152 5.68318 18.1203 6.04959 18.1203H7.76677C7.40069 18.6065 7.20295 19.1988 7.20349 19.8074C7.20349 21.3551 8.46129 22.6129 10.0089 22.6129C11.5566 22.6129 12.8144 21.3551 12.8144 19.8074C12.8144 19.1977 12.612 18.6043 12.2511 18.1203H16.6562C16.2901 18.6065 16.0923 19.1988 16.0929 19.8074C16.0929 21.3551 17.3507 22.6129 18.8983 22.6129C20.446 22.6129 21.7038 21.3551 21.7038 19.8074C21.7038 19.1977 21.5014 18.6043 21.1405 18.1203H24.2385C24.769 18.1203 25.2038 17.6883 25.2038 17.1551C25.2022 16.8994 25.0995 16.6546 24.9182 16.4743C24.7368 16.294 24.4915 16.1927 24.2358 16.1926H7.9527L8.77028 14.5273L22.3546 14.5027C22.8139 14.5027 23.2077 14.1746 23.2897 13.7207L23.9101 10.2483C23.2863 10.5949 22.5943 10.8335 21.8592 10.9389L21.5616 12.6051L9.1941 12.627L7.35935 3.91797L15.0927 3.94349C15.2134 3.26395 15.4485 2.62397 15.7774 2.04415ZM9.14489 19.8074C9.14489 20.2832 9.53317 20.6715 10.0089 20.6715C10.2381 20.6715 10.4579 20.5805 10.6199 20.4184C10.7819 20.2564 10.873 20.0366 10.873 19.8074C10.873 19.3316 10.4847 18.9434 10.0089 18.9434C9.53317 18.9434 9.14489 19.3316 9.14489 19.8074ZM18.0343 19.8074C18.0343 20.2832 18.4226 20.6715 18.8983 20.6715C19.1275 20.6715 19.3473 20.5805 19.5093 20.4184C19.6714 20.2564 19.7624 20.0366 19.7624 19.8074C19.7624 19.3316 19.3741 18.9434 18.8983 18.9434C18.4226 18.9434 18.0343 19.3316 18.0343 19.8074Z"/>
<path fill-rule="evenodd" clip-rule="evenodd" d="M21 10C23.7614 10 26 7.76142 26 5C26 2.23858 23.7614 0 21 0C18.2386 0 16 2.23858 16 5C16 7.76142 18.2386 10 21 10ZM18.0833 4.25C17.6691 4.25 17.3333 4.58579 17.3333 5C17.3333 5.41421 17.6691 5.75 18.0833 5.75H20.2796V7.94628C20.2796 8.36049 20.6153 8.69628 21.0296 8.69628C21.4438 8.69628 21.7796 8.36049 21.7796 7.94628V5.75H23.9758C24.3901 5.75 24.7258 5.41421 24.7258 5C24.7258 4.58579 24.3901 4.25 23.9758 4.25H21.7796V2.05372C21.7796 1.63951 21.4438 1.30372 21.0296 1.30372C20.6153 1.30372 20.2796 1.63951 20.2796 2.05372V4.25H18.0833Z"/>
</g>
</svg>