<svg viewBox="0 0 24 24" xmlns="http://www.w3.org/2000/svg">
<path d="M18 9C18 11.1458 16.9079 12.9159 15.545 14.2906C14.183 15.6644 12.6342 16.555 11.9376 16.9163L12.8585 18.6917C13.6448 18.2838 15.397 17.2805 16.9653 15.6987C18.5326 14.1178 20 11.8706 20 9H18ZM12 3C15.3137 3 18 5.68629 18 9H20C20 4.58172 16.4183 1 12 1V3ZM6 9C6 5.68629 8.68629 3 12 3V1C7.58172 1 4 4.58172 4 9H6ZM12.0624 16.9163C11.3658 16.555 9.81702 15.6644 8.45503 14.2906C7.09211 12.9159 6 11.1458 6 9H4C4 11.8706 5.46741 14.1178 7.03474 15.6987C8.60299 17.2805 10.3552 18.2838 11.1415 18.6917L12.0624 16.9163ZM11.9376 16.9163C11.9514 16.9091 11.9733 16.9023 12 16.9023C12.0267 16.9023 12.0486 16.9091 12.0624 16.9163L11.1415 18.6917C11.6831 18.9726 12.3169 18.9726 12.8585 18.6917L11.9376 16.9163ZM14 9C14 10.1046 13.1046 11 12 11V13C14.2091 13 16 11.2091 16 9H14ZM12 7C13.1046 7 14 7.89543 14 9H16C16 6.79086 14.2091 5 12 5V7ZM10 9C10 7.89543 10.8954 7 12 7V5C9.79086 5 8 6.79086 8 9H10ZM12 11C10.8954 11 10 10.1046 10 9H8C8 11.2091 9.79086 13 12 13V11Z" fill="black"/>
<mask id="path-2-inside-1_163_24" fill="white">
<path d="M19.7942 17.5C20.5841 17.9561 21 18.4734 21 19C21 19.5266 20.5841 20.0439 19.7942 20.5C19.0043 20.9561 17.8682 21.3348 16.5 21.5981C15.1318 21.8614 13.5798 22 12 22C10.4202 22 8.86817 21.8614 7.5 21.5981C6.13183 21.3348 4.99569 20.9561 4.20577 20.5C3.41586 20.0439 3 19.5266 3 19C3 18.4734 3.41586 17.9561 4.20577 17.5"/>
</mask>
<path d="M4.20577 20.5L3.70573 21.366L3.70574 21.366L4.20577 20.5ZM19.2942 18.366C19.6209 18.5547 19.8126 18.7241 19.9139 18.8501C19.9625 18.9105 19.9839 18.953 19.9929 18.9757C19.9973 18.9868 19.9989 18.9937 19.9995 18.9967C19.9998 18.9983 19.9999 18.9992 20 18.9996C20 18.9998 20 18.9999 20 18.9999C20 19 20 19 20 19C20 19 20 19 20 19H22C22 17.9121 21.1624 17.1353 20.2942 16.634L19.2942 18.366ZM20 19C20 19 20 19 20 19C20 19 20 19 20 19.0001C20 19.0001 20 19.0002 20 19.0004C19.9999 19.0008 19.9998 19.0017 19.9995 19.0033C19.9989 19.0063 19.9973 19.0132 19.9929 19.0243C19.9839 19.047 19.9625 19.0895 19.9139 19.1499C19.8126 19.2759 19.6209 19.4453 19.2942 19.634L20.2942 21.366C21.1624 20.8647 22 20.0879 22 19H20ZM19.2942 19.634C18.6376 20.0131 17.6213 20.364 16.311 20.6161L16.689 22.5801C18.1151 22.3056 19.371 21.8991 20.2942 21.366L19.2942 19.634ZM16.311 20.6161C15.0127 20.866 13.5246 21 12 21V23C13.635 23 15.2509 22.8568 16.689 22.5801L16.311 20.6161ZM12 21C10.4753 21 8.98724 20.866 7.68898 20.6161L7.31102 22.5801C8.7491 22.8568 10.3651 23 12 23V21ZM7.68898 20.6161C6.37874 20.364 5.36239 20.0131 4.7058 19.634L3.70574 21.366C4.62899 21.8991 5.88492 22.3056 7.31102 22.5801L7.68898 20.6161ZM4.70581 19.634C4.37903 19.4453 4.18735 19.2759 4.08607 19.1499C4.0375 19.0895 4.0161 19.047 4.00713 19.0244C4.00271 19.0132 4.00108 19.0063 4.00049 19.0033C4.00018 19.0017 4.00007 19.0008 4.00003 19.0004C4.00001 19.0002 4 19.0001 4 19.0001C4 19 4 19 4 19C4 19 4 19 4 19H2C2 20.0879 2.83748 20.8647 3.70573 21.366L4.70581 19.634ZM4 19C4 19 4 19 4 19C4 19 4 19 4 18.9999C4 18.9999 4.00001 18.9998 4.00003 18.9996C4.00007 18.9992 4.00018 18.9983 4.00049 18.9967C4.00108 18.9937 4.00271 18.9868 4.00713 18.9756C4.0161 18.953 4.0375 18.9105 4.08607 18.8501C4.18735 18.7241 4.37903 18.5547 4.70581 18.366L3.70573 16.634C2.83748 17.1353 2 17.9121 2 19H4Z" fill="black" mask="url(#path-2-inside-1_163_24)"/>
</svg>
