<svg viewBox="0 0 24 24" xmlns="http://www.w3.org/2000/svg">
<path fill-rule="evenodd" clip-rule="evenodd" d="M6.64699 10.196C5.32965 8.43954 5.48458 5.99099 7.00059 4.41481L9.58577 6.99999L8.56462 8.02114C8.09798 8.48778 7.98229 9.20067 8.27742 9.79094C9.56085 12.3578 11.6422 14.4391 14.209 15.7225C14.7993 16.0177 15.5122 15.902 15.9788 15.4354L17 14.4142L19.5852 16.9994C18.009 18.5154 15.5604 18.6703 13.804 17.353L12.2286 16.1714C10.5608 14.9206 9.07935 13.4391 7.82856 11.7714L6.64699 10.196ZM8.35186 2.93765C7.60524 2.19103 6.39473 2.19103 5.64811 2.93765C3.371 5.21476 3.1148 8.81975 5.04699 11.396L6.22856 12.9714C7.59306 14.7908 9.20922 16.4069 11.0286 17.7714L12.604 18.953C15.1802 20.8852 18.7852 20.629 21.0623 18.3519C21.8089 17.6052 21.8089 16.3947 21.0623 15.6481L18.4142 13C17.6331 12.2189 16.3668 12.2189 15.5858 13L14.8062 13.7795C12.8612 12.7336 11.2663 11.1388 10.2205 9.19373L11 8.4142C11.781 7.63315 11.781 6.36682 11 5.58578L8.35186 2.93765Z" />
</svg>
