<svg viewBox="0 0 24 24" xmlns="http://www.w3.org/2000/svg">
<path fill-rule="evenodd" clip-rule="evenodd" d="M8 5L7.93417 5C7.04769 4.99995 6.28387 4.99991 5.67221 5.08215C5.0167 5.17028 4.38835 5.36902 3.87868 5.87868C3.36902 6.38835 3.17028 7.0167 3.08215 7.67221C2.99991 8.28387 2.99995 9.04769 3 9.93417L3 10V14L3 14.0658C2.99995 14.9523 2.99991 15.7161 3.08215 16.3278C3.17028 16.9833 3.36902 17.6117 3.87868 18.1213C4.38835 18.631 5.0167 18.8297 5.67221 18.9179C6.28387 19.0001 7.04769 19.0001 7.93417 19L8 19H16L16.0658 19C16.9523 19.0001 17.7161 19.0001 18.3278 18.9179C18.9833 18.8297 19.6117 18.631 20.1213 18.1213C20.631 17.6117 20.8297 16.9833 20.9179 16.3278C21.0001 15.7161 21.0001 14.9523 21 14.0658L21 14V10L21 9.9342C21.0001 9.0477 21.0001 8.28388 20.9179 7.67221C20.8297 7.0167 20.631 6.38835 20.1213 5.87868C19.6117 5.36902 18.9833 5.17028 18.3278 5.08215C17.7161 4.99991 16.9523 4.99995 16.0658 5L16 5H8ZM5.2929 7.2929C5.36902 7.21677 5.50497 7.12263 5.93871 7.06431C6.40122 7.00213 7.02893 7 8 7H16C16.9711 7 17.5988 7.00213 18.0613 7.06431C18.495 7.12263 18.631 7.21677 18.7071 7.2929C18.7832 7.36902 18.8774 7.50497 18.9357 7.93871C18.954 8.07462 18.9671 8.2248 18.9764 8.39376L12.4472 11.6584C12.1657 11.7991 11.8343 11.7991 11.5528 11.6584L5.02358 8.39376C5.03295 8.2248 5.04604 8.07462 5.06431 7.93871C5.12263 7.50497 5.21677 7.36902 5.2929 7.2929ZM5 10.618V14C5 14.9711 5.00213 15.5988 5.06431 16.0613C5.12263 16.495 5.21677 16.631 5.2929 16.7071C5.36902 16.7832 5.50497 16.8774 5.93871 16.9357C6.40122 16.9979 7.02893 17 8 17H16C16.9711 17 17.5988 16.9979 18.0613 16.9357C18.495 16.8774 18.631 16.7832 18.7071 16.7071C18.7832 16.631 18.8774 16.495 18.9357 16.0613C18.9979 15.5988 19 14.9711 19 14V10.618L13.3416 13.4472C12.4971 13.8695 11.5029 13.8695 10.6584 13.4472L5 10.618Z" />
</svg>
