<svg class="icon" width = "25" height = "29" viewBox="0 0 25 29" fill="#B88E2F" xmlns="http://www.w3.org/2000/svg">
<path fill-rule="evenodd" clip-rule="evenodd" d="M21.7397 24.7274C21.7397 26.6789 20.1578 28.2608 18.2063 28.2608L3.53342 28.2608C1.58195 28.2608 1.04861e-06 26.6789 1.21921e-06 24.7274L3.07205e-06 3.53339C3.24265e-06 1.58192 1.58195 -2.48526e-05 3.53342 -2.4682e-05L18.2063 -2.33992e-05C20.1578 -2.32286e-05 21.7397 1.58193 21.7397 3.5334L21.7397 13.0422L23.9118 13.0422C24.5128 13.0422 25 13.5294 25 14.1304C25 14.7314 24.5128 15.2186 23.9118 15.2186L21.7397 15.2186L21.7397 24.7274ZM19.5633 13.0422L19.5633 3.5334C19.5633 2.78393 18.9558 2.1764 18.2063 2.1764L3.53342 2.1764C2.78396 2.1764 2.17642 2.78393 2.17642 3.53339L2.17642 24.7274C2.17642 25.4768 2.78395 26.0844 3.53342 26.0844L18.2063 26.0844C18.9558 26.0844 19.5633 25.4769 19.5633 24.7274L19.5633 15.2186L13.5079 15.2186L14.8982 16.601C15.3244 17.0248 15.3264 17.7138 14.9026 18.14C14.4789 18.5662 13.7898 18.5681 13.3637 18.1444L10.1034 14.9027C9.90487 14.7055 9.78192 14.4323 9.78192 14.1304C9.78192 13.8301 9.90353 13.5583 10.1002 13.3614L13.3594 10.0842C13.7832 9.65811 14.4722 9.65622 14.8983 10.08C15.3245 10.5038 15.3264 11.1928 14.9025 11.619L13.4871 13.0422L19.5633 13.0422Z"/>
</svg>
