<svg viewBox="0 0 24 24" fill="none" xmlns="http://www.w3.org/2000/svg">
<path d="M8 18.9282C9.21615 19.6303 10.5957 20 12 20C13.4043 20 14.7838 19.6303 16 18.9282C17.2162 18.2261 18.2261 17.2162 18.9282 16C19.6303 14.7838 20 13.4043 20 12C20 10.5957 19.6303 9.21615 18.9282 8C18.2261 6.78385 17.2162 5.77394 16 5.0718C14.7838 4.36965 13.4043 4 12 4C10.5957 4 9.21615 4.36965 8 5.0718" stroke="black" stroke-width="2"/>
<path d="M0.71936 12L1.21912 11.3753L5.21912 6.37531L6.78086 7.62471L4.08062 11H11C11.5523 11 12 11.4477 12 12C12 12.5523 11.5523 13 11 13H4.08062L6.78086 16.3753L5.21912 17.6247L1.21912 12.6247L0.71936 12Z" fill="black"/>
</svg>