<svg class = "logout" viewBox="0 0 32 37" fill="none" xmlns="http://www.w3.org/2000/svg">
<path fill-rule="evenodd" clip-rule="evenodd" d="M4.17315 4.52278C4.17315 2.02489 6.19804 0 8.69593 0H27.4772C29.9751 0 32 2.02489 32 4.52278V31.6511C32 34.149 29.9751 36.1739 27.4772 36.1739H8.69593C6.19804 36.1739 4.17315 34.149 4.17315 31.6511V19.4798H1.39291C0.623627 19.4798 0 18.8562 0 18.0869C0 17.3176 0.623627 16.694 1.39291 16.694H4.17315V4.52278ZM6.95897 19.4798V31.6511C6.95897 32.6104 7.73661 33.388 8.69593 33.388H27.4772C28.4365 33.388 29.2142 32.6104 29.2142 31.6511V4.52278C29.2142 3.56346 28.4365 2.78582 27.4772 2.78582H8.69593C7.73661 2.78582 6.95897 3.56346 6.95897 4.52278V16.694H14.7099L12.9302 14.9245C12.3847 14.3821 12.3822 13.5001 12.9246 12.9546C13.4671 12.4091 14.349 12.4066 14.8945 12.949L19.0676 17.0984C19.3218 17.3508 19.4791 17.7005 19.4791 18.0869C19.4791 18.4713 19.3235 18.8192 19.0718 19.0713L14.9 23.266C14.3575 23.8114 13.4756 23.8139 12.9301 23.2714C12.3847 22.7289 12.3823 21.847 12.9247 21.3015L14.7365 19.4798H6.95897Z" fill="#B88E2F"/>
</svg>
