<svg class="icon" viewBox="0 0 25 25" fill="none" xmlns="http://www.w3.org/2000/svg">
<path d="M11.4586 17.3594C11.562 17.3586 11.6621 17.3958 11.7399 17.464C11.8177 17.5322 11.8677 17.6265 11.8805 17.7292V23.7292C11.8809 24.0557 11.7556 24.3698 11.5306 24.6064C11.3057 24.843 10.9983 24.9839 10.6722 25H2.12032C1.7976 24.9995 1.48707 24.8767 1.25127 24.6563C1.01547 24.436 0.871914 24.1345 0.849521 23.8125V17.7865C0.84873 17.683 0.885958 17.5829 0.95413 17.5051C1.0223 17.4274 1.11667 17.3773 1.2193 17.3646H11.4586V17.3594ZM23.7552 17.3594C23.8583 17.3597 23.9578 17.3973 24.0353 17.4653C24.1129 17.5333 24.1632 17.627 24.177 17.7292V23.7292C24.1774 24.0565 24.0514 24.3714 23.8253 24.6081C23.5992 24.8449 23.2905 24.9852 22.9635 25H14.4117C14.0895 24.9994 13.7796 24.8764 13.5446 24.6559C13.3097 24.4355 13.1672 24.134 13.1461 23.8125V17.7865C13.1453 17.683 13.1825 17.5829 13.2507 17.5051C13.3189 17.4274 13.4132 17.3773 13.5159 17.3646H23.7291L23.7552 17.3594ZM8.17225 19.1146L8.12537 19.151L5.7296 21.7865L4.63067 20.7448C4.57716 20.6916 4.5067 20.6588 4.43154 20.6522C4.35638 20.6455 4.28126 20.6654 4.21923 20.7083L4.17756 20.7448L3.72445 21.151C3.69689 21.1723 3.67398 21.199 3.65711 21.2294C3.64024 21.2599 3.62978 21.2934 3.62636 21.3281C3.62295 21.3627 3.62665 21.3977 3.63725 21.4308C3.64785 21.464 3.66512 21.4946 3.68799 21.5208L3.72445 21.5625L5.28691 23.0365C5.40773 23.1556 5.57032 23.2229 5.74002 23.224C5.8245 23.2264 5.90855 23.211 5.98664 23.1787C6.06474 23.1464 6.13511 23.0979 6.19313 23.0365L9.06806 19.9948C9.1111 19.943 9.13719 19.8793 9.14278 19.8122C9.14837 19.7451 9.13319 19.678 9.09931 19.6198L9.06806 19.5833L8.61494 19.1771C8.56428 19.1104 8.48935 19.0665 8.40645 19.0548C8.32355 19.0431 8.23939 19.0646 8.17225 19.1146ZM20.4688 19.1146L20.4219 19.151L17.9949 21.7865L16.896 20.7448C16.8433 20.692 16.7738 20.6594 16.6995 20.6528C16.6252 20.6461 16.551 20.6658 16.4897 20.7083L16.4429 20.7448L15.9898 21.151C15.9626 21.1727 15.9401 21.1996 15.9237 21.2303C15.9073 21.2609 15.8973 21.2946 15.8944 21.3292C15.8915 21.3638 15.8957 21.3987 15.9067 21.4316C15.9177 21.4646 15.9353 21.4949 15.9585 21.5208L15.9898 21.5625L17.5522 23.0365C17.673 23.1556 17.8356 23.2229 18.0053 23.224C18.0898 23.2268 18.174 23.2115 18.2521 23.1792C18.3303 23.1468 18.4006 23.0982 18.4584 23.0365L21.3542 19.9687C21.3911 19.9132 21.4109 19.848 21.4109 19.7812C21.4109 19.7145 21.3911 19.6493 21.3542 19.5937V19.5573L20.9011 19.151C20.8471 19.0913 20.7724 19.0543 20.6921 19.0475C20.6119 19.0408 20.5321 19.0647 20.4688 19.1146ZM10.6982 13.1146C11.0089 13.1263 11.3037 13.2553 11.5231 13.4756C11.7424 13.696 11.8702 13.9913 11.8805 14.3021V15.6615C11.8822 15.761 11.8486 15.858 11.7857 15.9352C11.7228 16.0124 11.6346 16.0649 11.5367 16.0833H0.396408C0.297313 16.0813 0.202376 16.0431 0.129473 15.976C0.0565695 15.9088 0.0107296 15.8173 0.000584536 15.7187V14.3906C-0.00901832 14.0779 0.099993 13.7731 0.305747 13.5374C0.5115 13.3017 0.798775 13.1525 1.10993 13.1198H10.6982V13.1146ZM23.8125 13.1146C24.1241 13.125 24.4201 13.2534 24.6406 13.4739C24.8611 13.6944 24.9895 13.9904 24.9999 14.3021V15.6615C25.0017 15.761 24.9681 15.858 24.9052 15.9352C24.8423 16.0124 24.7541 16.0649 24.6562 16.0833H13.5107C13.4117 16.0799 13.3173 16.0404 13.2454 15.9723C13.1734 15.9042 13.1289 15.8122 13.12 15.7135V14.3906C13.1104 14.0779 13.2194 13.7731 13.4252 13.5374C13.631 13.3017 13.9182 13.1525 14.2294 13.1198H23.8125V13.1146ZM17.5626 4.26042C17.6652 4.2609 17.764 4.2987 17.8407 4.36676C17.9174 4.43481 17.9666 4.52846 17.9793 4.63021V10.6094C17.98 10.9325 17.8576 11.2437 17.637 11.4798C17.4164 11.7158 17.1142 11.859 16.7918 11.8802H8.266C7.94279 11.8784 7.63224 11.7544 7.39656 11.5332C7.16089 11.312 7.01753 11.0099 6.9952 10.6875V4.6875C6.99568 4.58497 7.03348 4.48613 7.10153 4.40945C7.16959 4.33276 7.26324 4.28349 7.36498 4.27083H17.5835L17.5626 4.26042ZM14.2971 6.01562L14.2554 6.05208L11.8284 8.6875L10.7295 7.64583C10.6768 7.59305 10.6072 7.56047 10.533 7.5538C10.4587 7.54714 10.3845 7.56681 10.3232 7.60938L10.2764 7.64583L9.82325 8.05208C9.79631 8.07378 9.77396 8.10064 9.75752 8.13107C9.74107 8.1615 9.73085 8.19491 9.72746 8.22933C9.72406 8.26376 9.72756 8.29851 9.73775 8.33157C9.74794 8.36463 9.76461 8.39533 9.78679 8.42187L9.82325 8.46354L11.3857 9.93229C11.4446 9.99294 11.515 10.0412 11.5928 10.0743C11.6706 10.1074 11.7543 10.1246 11.8388 10.125C11.9238 10.1275 12.0083 10.1116 12.0865 10.0783C12.1647 10.045 12.2348 9.99523 12.2919 9.93229L15.1721 6.89583C15.213 6.84289 15.2373 6.77902 15.2419 6.71228C15.2465 6.64554 15.2313 6.57892 15.1981 6.52083L15.1721 6.48437L14.719 6.07812C14.6714 6.02086 14.6054 5.98181 14.5324 5.96757C14.4593 5.95333 14.3835 5.96479 14.3179 6L14.2971 6.01562ZM17.5835 0C17.9056 0.000627056 18.2156 0.12361 18.4505 0.344068C18.6855 0.564526 18.8279 0.866 18.8491 1.1875V2.54687C18.8477 2.64968 18.8097 2.74863 18.7419 2.82594C18.6741 2.90326 18.581 2.95389 18.4793 2.96875H6.57333C6.4707 2.9697 6.37124 2.9332 6.29358 2.86609C6.21593 2.79898 6.1654 2.70586 6.15147 2.60417V1.27083C6.15068 0.948581 6.27235 0.638066 6.49184 0.402128C6.71134 0.16619 7.01227 0.0224511 7.33373 0H17.5835Z" fill="#B88E2F"/>
</svg>
