<svg viewBox="0 0 24 24" xmlns="http://www.w3.org/2000/svg">
<path fill-rule="evenodd" clip-rule="evenodd" d="M6 5.8C6 5.35817 6.35817 5 6.8 5H8V7C8 7.55228 8.44772 8 9 8C9.55228 8 10 7.55228 10 7V5H11.2C11.6418 5 12 5.35817 12 5.8V10.2C12 10.6418 11.6418 11 11.2 11H10.2H8H6.8C6.35817 11 6 10.6418 6 10.2V5.8ZM13 13.8V19H18.2C18.6418 19 19 18.6418 19 18.2V13.8C19 13.3582 18.6418 13 18.2 13H17V15C17 15.5523 16.5523 16 16 16C15.4477 16 15 15.5523 15 15V13H13.8C13.3582 13 13 13.3582 13 13.8ZM16 11H18.2C19.7464 11 21 12.2536 21 13.8V18.2C21 19.7464 19.7464 21 18.2 21H13H12H11H5.8C4.2536 21 3 19.7464 3 18.2V13.8C3 12.8098 3.514 11.9397 4.28975 11.4418C4.10426 11.0676 4 10.646 4 10.2V5.8C4 4.2536 5.2536 3 6.8 3H9H11.2C12.7464 3 14 4.2536 14 5.8V10.2C14 10.478 13.9595 10.7465 13.884 11H16ZM11 19V13.8C11 13.3582 10.6418 13 10.2 13H9V15C9 15.5523 8.55228 16 8 16C7.44772 16 7 15.5523 7 15V13H6.8H5.8C5.35818 13 5 13.3582 5 13.8V18.2C5 18.6418 5.35818 19 5.8 19H11Z" fill="black"/>
</svg>
