<svg class = "product-icon" viewBox="0 0 32 32" fill="none" xmlns="http://www.w3.org/2000/svg">
<path d="M14.667 22.22C14.7994 22.219 14.9276 22.2666 15.0271 22.3539C15.1267 22.4412 15.1907 22.562 15.207 22.6933V30.3733C15.2075 30.7912 15.0472 31.1933 14.7592 31.4962C14.4713 31.799 14.0778 31.9794 13.6604 32H2.71401C2.30093 31.9993 1.90344 31.8421 1.60162 31.5601C1.2998 31.278 1.11605 30.8921 1.08739 30.48V22.7667C1.08637 22.6343 1.13403 22.5061 1.22129 22.4066C1.30855 22.307 1.42934 22.243 1.56071 22.2267H14.667V22.22ZM30.4066 22.22C30.5386 22.2204 30.666 22.2686 30.7652 22.3556C30.8645 22.4426 30.9289 22.5625 30.9466 22.6933V30.3733C30.947 30.7923 30.7858 31.1954 30.4964 31.4984C30.207 31.8014 29.8119 31.9811 29.3933 32H18.4469C18.0345 31.9992 17.6378 31.8418 17.3371 31.5596C17.0364 31.2774 16.854 30.8915 16.827 30.48V22.7667C16.826 22.6343 16.8736 22.5061 16.9609 22.4066C17.0481 22.307 17.1689 22.243 17.3003 22.2267H30.3733L30.4066 22.22ZM10.4605 24.4667L10.4005 24.5133L7.33389 27.8867L5.92726 26.5533C5.85876 26.4852 5.76858 26.4433 5.67237 26.4348C5.57617 26.4262 5.48002 26.4517 5.40061 26.5067L5.34728 26.5533L4.76729 27.0733C4.73202 27.1005 4.70269 27.1347 4.6811 27.1737C4.65951 27.2126 4.64612 27.2556 4.64174 27.2999C4.63737 27.3443 4.64212 27.389 4.65568 27.4314C4.66925 27.4739 4.69135 27.5131 4.72063 27.5467L4.76729 27.6L6.76724 29.4867C6.9219 29.6392 7.13001 29.7253 7.34723 29.7267C7.45536 29.7298 7.56294 29.7101 7.6629 29.6687C7.76287 29.6274 7.85294 29.5653 7.92721 29.4867L11.6071 25.5933C11.6622 25.5271 11.6956 25.4455 11.7028 25.3596C11.7099 25.2738 11.6905 25.1878 11.6471 25.1133L11.6071 25.0667L11.0271 24.5467C10.9623 24.4614 10.8664 24.4051 10.7603 24.3901C10.6541 24.3751 10.5464 24.4026 10.4605 24.4667ZM26.2001 24.4667L26.1401 24.5133L23.0335 27.8867L21.6269 26.5533C21.5594 26.4858 21.4704 26.4441 21.3753 26.4355C21.2803 26.427 21.1852 26.4522 21.1069 26.5067L21.0469 26.5533L20.4669 27.0733C20.4321 27.101 20.4033 27.1356 20.3823 27.1748C20.3614 27.214 20.3486 27.2571 20.3449 27.3014C20.3411 27.3457 20.3465 27.3903 20.3606 27.4325C20.3747 27.4747 20.3972 27.5135 20.4269 27.5467L20.4669 27.6L22.4668 29.4867C22.6215 29.6392 22.8296 29.7253 23.0468 29.7267C23.155 29.7303 23.2627 29.7107 23.3627 29.6693C23.4628 29.628 23.5528 29.5657 23.6268 29.4867L27.3334 25.56C27.3807 25.4889 27.4059 25.4054 27.4059 25.32C27.4059 25.2346 27.3807 25.1511 27.3334 25.08V25.0333L26.7534 24.5133C26.6843 24.4369 26.5887 24.3895 26.4859 24.3809C26.3832 24.3722 26.281 24.4029 26.2001 24.4667ZM13.6937 16.7867C14.0914 16.8016 14.4687 16.9668 14.7495 17.2488C15.0303 17.5309 15.1938 17.9089 15.207 18.3067V20.0467C15.2092 20.1741 15.1663 20.2983 15.0857 20.3971C15.0052 20.4959 14.8923 20.5631 14.767 20.5867H0.507402C0.380561 20.5841 0.259042 20.5352 0.165725 20.4493C0.072409 20.3633 0.0137338 20.2462 0.000748205 20.12V18.42C-0.0115435 18.0197 0.127991 17.6296 0.391356 17.3279C0.654721 17.0262 1.02243 16.8352 1.42071 16.7933H13.6937V16.7867ZM30.48 16.7867C30.8788 16.8 31.2578 16.9644 31.54 17.2466C31.8222 17.5288 31.9866 17.9078 31.9999 18.3067V20.0467C32.0021 20.1741 31.9592 20.2983 31.8786 20.3971C31.7981 20.4959 31.6852 20.5631 31.5599 20.5867H17.2936C17.1669 20.5823 17.0462 20.5318 16.9541 20.4446C16.862 20.3574 16.8049 20.2396 16.7936 20.1133V18.42C16.7814 18.0197 16.9209 17.6296 17.1843 17.3279C17.4476 17.0262 17.8153 16.8352 18.2136 16.7933H30.48V16.7867ZM22.4802 5.45333C22.6114 5.45395 22.7379 5.50234 22.8361 5.58945C22.9342 5.67656 22.9973 5.79644 23.0135 5.92667V13.58C23.0144 13.9936 22.8577 14.3919 22.5754 14.6941C22.293 14.9963 21.9062 15.1795 21.4935 15.2067H10.5805C10.1668 15.2043 9.76926 15.0456 9.4676 14.7625C9.16594 14.4794 8.98243 14.0927 8.95385 13.68V6C8.95447 5.86877 9.00285 5.74225 9.08996 5.64409C9.17707 5.54594 9.29694 5.48287 9.42717 5.46667H22.5068L22.4802 5.45333ZM18.3003 7.7L18.2469 7.74667L15.1404 11.12L13.7337 9.78667C13.6663 9.7191 13.5773 9.6774 13.4822 9.66887C13.3871 9.66034 13.2921 9.68552 13.2137 9.74L13.1537 9.78667L12.5738 10.3067C12.5393 10.3344 12.5107 10.3688 12.4896 10.4078C12.4686 10.4467 12.4555 10.4895 12.4511 10.5335C12.4468 10.5776 12.4513 10.6221 12.4643 10.6644C12.4774 10.7067 12.4987 10.746 12.5271 10.78L12.5738 10.8333L14.5737 12.7133C14.6491 12.791 14.7392 12.8528 14.8388 12.8951C14.9384 12.9375 15.0455 12.9595 15.1537 12.96C15.2624 12.9632 15.3706 12.9428 15.4707 12.9002C15.5708 12.8577 15.6605 12.7939 15.7337 12.7133L19.4202 8.82667C19.4726 8.75891 19.5037 8.67715 19.5097 8.59172C19.5156 8.50629 19.4961 8.42102 19.4536 8.34667L19.4202 8.3L18.8403 7.78C18.7793 7.70671 18.695 7.65671 18.6014 7.63849C18.5079 7.62027 18.4109 7.63493 18.3269 7.68L18.3003 7.7ZM22.5068 0C22.9192 0.000802632 23.3159 0.15822 23.6167 0.440406C23.9174 0.722593 24.0997 1.10848 24.1268 1.52V3.26C24.125 3.39159 24.0764 3.51824 23.9896 3.61721C23.9029 3.71618 23.7837 3.78098 23.6535 3.8H8.41386C8.28249 3.80122 8.15519 3.7545 8.05579 3.66859C7.95639 3.58269 7.89171 3.4635 7.87388 3.33333V1.62667C7.87288 1.21418 8.02861 0.816725 8.30956 0.514724C8.59051 0.212724 8.9757 0.0287374 9.38717 0H22.5068Z" fill="#B88E2F"/>
</svg>
