<svg width="24" height="20" viewBox="0 0 24 20" fill="none" xmlns="http://www.w3.org/2000/svg">
<path d="M21.3333 10V4.16669H23.6667V11.1667H21.3333M21.3333 15.8334H23.6667V13.5H21.3333M9.66673 11.1667C12.7817 11.1667 19 12.73 19 15.8334V19.3334H0.333435V15.8334C0.333435 12.73 6.55174 11.1667 9.66673 11.1667ZM9.66673 0.666687C10.9044 0.666687 12.0914 1.15835 12.9665 2.03352C13.8417 2.90869 14.3334 4.09568 14.3334 5.33335C14.3334 6.57103 13.8417 7.75802 12.9665 8.63319C12.0914 9.50836 10.9044 10 9.66673 10C8.42906 10 7.24208 9.50836 6.36691 8.63319C5.49174 7.75802 5.00008 6.57103 5.00008 5.33335C5.00008 4.09568 5.49174 2.90869 6.36691 2.03352C7.24208 1.15835 8.42906 0.666687 9.66673 0.666687ZM9.66673 13.3834C6.20174 13.3834 2.55009 15.0867 2.55009 15.8334V17.1167H16.7834V15.8334C16.7834 15.0867 13.1317 13.3834 9.66673 13.3834ZM9.66673 2.88335C9.01695 2.88335 8.39379 3.14148 7.93432 3.60094C7.47486 4.06041 7.21674 4.68357 7.21674 5.33335C7.21674 5.98313 7.47486 6.6063 7.93432 7.06577C8.39379 7.52523 9.01695 7.78335 9.66673 7.78335C10.3165 7.78335 10.9397 7.52523 11.3991 7.06577C11.8586 6.6063 12.1167 5.98313 12.1167 5.33335C12.1167 4.68357 11.8586 4.06041 11.3991 3.60094C10.9397 3.14148 10.3165 2.88335 9.66673 2.88335Z" fill="black"/>
</svg>
