<svg viewBox="0 0 24 20" fill="black" xmlns="http://www.w3.org/2000/svg">
<path d="M9.66667 11.1667C12.7816 11.1667 18.9999 12.73 18.9999 15.8334V19.3334H0.333374V15.8334C0.333374 12.73 6.55168 11.1667 9.66667 11.1667ZM9.66667 0.666687C10.9043 0.666687 12.0913 1.15835 12.9664 2.03352C13.8416 2.90869 14.3333 4.09568 14.3333 5.33335C14.3333 6.57103 13.8416 7.75802 12.9664 8.63319C12.0913 9.50836 10.9043 10 9.66667 10C8.429 10 7.24202 9.50836 6.36685 8.63319C5.49168 7.75802 5.00002 6.57103 5.00002 5.33335C5.00002 4.09568 5.49168 2.90869 6.36685 2.03352C7.24202 1.15835 8.429 0.666687 9.66667 0.666687ZM9.66667 13.3834C6.20168 13.3834 2.55003 15.0867 2.55003 15.8334V17.1167H16.7833V15.8334C16.7833 15.0867 13.1316 13.3834 9.66667 13.3834ZM9.66667 2.88335C9.01689 2.88335 8.39373 3.14148 7.93426 3.60094C7.4748 4.06041 7.21668 4.68357 7.21668 5.33335C7.21668 5.98313 7.4748 6.6063 7.93426 7.06577C8.39373 7.52523 9.01689 7.78335 9.66667 7.78335C10.3164 7.78335 10.9396 7.52523 11.399 7.06577C11.8585 6.6063 12.1166 5.98313 12.1166 5.33335C12.1166 4.68357 11.8585 4.06041 11.399 3.60094C10.9396 3.14148 10.3164 2.88335 9.66667 2.88335Z"/>
</svg>
